<svg width="20" height="20" viewBox="0 0 37 47" fill="none" xmlns="http://www.w3.org/2000/svg">
<path fill-rule="evenodd" clip-rule="evenodd" d="M24.2552 3.61538C25.2607 3.61538 26.0759 4.42472 26.0759 5.42308V12.6538V23.487C26.0759 24.4925 26.8911 25.3077 27.8966 25.3077V25.3077C28.9021 25.3077 29.7173 24.4925 29.7173 23.487V12.6538C29.7173 11.6555 30.5322 10.8462 31.538 10.8462C32.5435 10.8462 33.3586 11.6555 33.3586 12.6538V30.7308C33.3586 37.7193 27.6526 43.3846 20.6139 43.3846V47C29.6636 47 37 39.716 37 30.7308V12.6538C37 9.65876 34.5545 7.23077 31.538 7.23077C30.8995 7.23077 30.2865 7.33952 29.7173 7.53935V5.42308C29.7173 2.428 27.2717 0 24.2552 0C21.7364 0 19.6157 1.69284 18.9845 3.99517C18.3618 3.75009 17.6828 3.61538 16.9725 3.61538C13.9558 3.61538 11.5104 6.04338 11.5104 9.03846V24.788L10.3541 22.4609L10.3504 22.4532C9.00318 19.7735 5.72306 18.6853 3.02396 20.023C0.348583 21.3488 -0.751691 24.5603 0.541235 27.2263L3.71143 35.023L3.77124 35.1546C6.4557 40.4851 9.59048 43.5037 12.6913 45.1578C15.7818 46.8062 18.657 47 20.6139 47V43.3846C18.9291 43.3846 16.7463 43.2166 14.4146 41.9729C12.1035 40.7401 9.46519 38.3515 7.06036 33.6014L3.89345 25.8131L3.83419 25.6825C3.38514 24.7892 3.75046 23.7037 4.65015 23.2578C5.54879 22.8124 6.64064 23.1737 7.09068 24.0647L10.9952 31.9232C11.4073 32.7527 12.3351 33.1907 13.2375 32.9817L13.6029 32.8971C14.5096 32.6871 15.1517 31.8794 15.1517 30.9487V28.9231L15.1517 9.03846C15.1517 8.04011 15.9668 7.23077 16.9725 7.23077C17.978 7.23077 18.7932 8.04011 18.7932 9.03846V23.487C18.7932 24.4925 19.6083 25.3077 20.6139 25.3077V25.3077C21.6194 25.3077 22.4346 24.4925 22.4346 23.487V9.03846V5.42308C22.4346 4.42472 23.2495 3.61538 24.2552 3.61538Z" fill="black"/>
</svg>
